<svg width="155" height="106" viewBox="0 0 155 106" fill="none" xmlns="http://www.w3.org/2000/svg">
<path fill-rule="evenodd" clip-rule="evenodd" d="M45.9195 36.3305C20.2824 50.9729 3 78.5948 3 110.256C3 111.175 3.01371 112.089 3.04387 113H172.956C172.984 112.089 173 111.175 173 110.256C173 78.5975 155.718 50.9756 130.08 36.3305L143.387 13.2638C144.103 12.0039 144.292 10.5119 143.912 9.11326C143.533 7.71465 142.616 6.523 141.362 5.79836C140.108 5.07372 138.618 4.87493 137.218 5.24536C135.818 5.61578 134.621 6.52536 133.889 7.7756L120.199 31.5009C109.979 27.3184 99.0412 25.1744 88 25.1895C76.9586 25.1751 66.0209 27.32 55.8015 31.5036L42.111 7.7756C41.7535 7.14641 41.2752 6.59419 40.7037 6.15074C40.1321 5.70729 39.4785 5.38136 38.7806 5.19172C38.0826 5.00209 37.3541 4.95249 36.6369 5.04578C35.9197 5.13907 35.2281 5.37341 34.6018 5.73531C33.9754 6.0972 33.4268 6.57951 32.9875 7.15446C32.5482 7.7294 32.2269 8.38564 32.042 9.08537C31.8572 9.78511 31.8125 10.5145 31.9104 11.2316C32.0084 11.9487 32.2471 12.6394 32.6129 13.2638L45.9195 36.3277V36.3305Z" fill="#B1CC33"/>
<path d="M45.7957 33.9059L47.1598 36.2781C47.4745 36.0996 47.7506 35.861 47.9723 35.576C48.1939 35.291 48.3567 34.9653 48.4513 34.6176C48.5458 34.2699 48.5703 33.9071 48.5233 33.5499C48.4762 33.1928 48.3586 32.8484 48.1772 32.5366L45.7957 33.9031V33.9059ZM2.794 110.267L0.0439994 110.354C0.0668586 111.064 0.366651 111.737 0.879919 112.231C1.39319 112.724 2.07965 113 2.794 113V110.267ZM173.206 110.267V113C173.92 113 174.607 112.724 175.12 112.231C175.633 111.737 175.933 111.064 175.956 110.354L173.206 110.267ZM130.204 33.9059L127.823 32.5393C127.642 32.851 127.525 33.1952 127.478 33.552C127.431 33.9089 127.456 34.2714 127.55 34.6188C127.645 34.9662 127.807 35.2916 128.029 35.5763C128.25 35.8611 128.526 36.0996 128.84 36.2781L130.204 33.9031V33.9059ZM143.55 10.9319L145.932 12.2984L143.55 10.9319ZM141.537 3.46527L142.912 1.09572L141.537 3.46527ZM134.024 5.46585L131.643 4.09933L134.024 5.46585ZM120.293 29.0957L119.251 31.6265C119.867 31.8769 120.553 31.897 121.183 31.6829C121.812 31.4688 122.342 31.0351 122.675 30.4622L120.293 29.0957ZM55.7067 29.0957L53.3253 30.4622C53.6576 31.0351 54.1877 31.4688 54.8173 31.6829C55.4469 31.897 56.1332 31.8769 56.749 31.6265L55.7067 29.0957ZM41.976 5.46312L39.5945 6.82964L41.976 5.46312ZM34.463 3.46253L33.088 1.09299L34.463 3.46253ZM32.45 10.9292L30.0685 12.2957L32.45 10.9292ZM5.5 107.534C5.5 77.0223 22.2695 50.3997 47.1598 36.2781L44.4317 31.5308C17.897 46.5872 0 74.9807 0 107.534H5.5ZM5.54125 110.179C5.51375 109.302 5.5 108.419 5.5 107.534H0C0 108.477 0.0137494 109.42 0.0439994 110.354L5.544 110.179H5.54125ZM173.209 107.534H2.7885V113H173.206V107.534H173.209ZM170.5 107.534C170.5 108.419 170.486 109.302 170.459 110.179L175.956 110.354C175.984 109.417 176 108.477 176 107.534H170.5ZM128.84 36.2781C153.73 50.3997 170.5 77.0223 170.5 107.534H176C176 74.9834 158.103 46.5872 131.568 31.5281L128.84 36.2781ZM141.169 9.56541L127.823 32.5366L132.586 35.2696L145.932 12.2984L141.169 9.56541ZM140.162 5.83208C140.794 6.19451 141.254 6.79145 141.443 7.49158C141.632 8.19171 141.533 8.93769 141.169 9.56541L145.932 12.2984C147.025 10.4153 147.322 8.17736 146.756 6.07697C146.189 3.97658 144.807 2.18576 142.912 1.09846L140.162 5.83208ZM136.406 6.83237C136.77 6.20466 137.371 5.74664 138.075 5.55905C138.78 5.37146 139.53 5.46967 140.162 5.83208L142.912 1.09846C141.017 0.0112338 138.765 -0.283398 136.652 0.279372C134.538 0.842142 132.737 2.21622 131.643 4.09933L136.406 6.83237ZM122.675 30.4622L136.406 6.82964L131.643 4.0966L117.912 27.7292L122.675 30.4622ZM88 25.5428C99.066 25.5428 109.615 27.7073 119.251 31.6292L121.336 26.5731C110.756 22.2704 99.4315 20.0636 88 20.0767V25.5428ZM56.749 31.6292C66.6676 27.5966 77.2835 25.529 88 25.5428V20.0767C76.5686 20.0627 65.2447 22.2686 54.6645 26.5704L56.749 31.6265V31.6292ZM58.0882 27.7319L44.3575 4.09933L39.5945 6.83237L53.3253 30.465L58.0882 27.7319ZM44.3575 4.09933C43.2634 2.21622 41.4615 0.842142 39.3481 0.279372C37.2347 -0.283398 34.9828 0.0112338 33.088 1.09846L35.838 5.83208C36.4696 5.46967 37.2202 5.37146 37.9247 5.55905C38.6292 5.74664 39.2298 6.20466 39.5945 6.83237L44.3575 4.09933ZM33.088 1.09846C31.1932 2.18576 29.8106 3.97658 29.2443 6.07697C28.6781 8.17736 28.9745 10.4153 30.0685 12.2984L34.8315 9.56541C34.4668 8.93769 34.368 8.19171 34.5568 7.49158C34.7455 6.79145 35.2064 6.19451 35.838 5.83208L33.088 1.09846ZM30.0685 12.2984L43.4143 35.2696L48.1772 32.5366L34.8315 9.56541L30.0685 12.2984Z" fill="black"/>
<path d="M51 83C54.866 83 58 79.866 58 76C58 72.134 54.866 69 51 69C47.134 69 44 72.134 44 76C44 79.866 47.134 83 51 83Z" fill="black"/>
<path d="M125 83C128.866 83 132 79.866 132 76C132 72.134 128.866 69 125 69C121.134 69 118 72.134 118 76C118 79.866 121.134 83 125 83Z" fill="black"/>
</svg>
