<svg width="217" height="214" viewBox="0 0 217 214" fill="none" xmlns="http://www.w3.org/2000/svg">
<mask id="mask0" mask-type="alpha" maskUnits="userSpaceOnUse" x="-57" y="0" width="274" height="274">
<circle cx="80" cy="137" r="137" fill="white" fill-opacity="0.5"/>
</mask>
<g mask="url(#mask0)">
<circle cx="14.8743" cy="6.00476" r="6.00476" fill="white" fill-opacity="0.5"/>
<circle cx="14.8743" cy="43.2343" r="6.00476" fill="white" fill-opacity="0.5"/>
<circle cx="14.8743" cy="80.4637" r="6.00476" fill="white" fill-opacity="0.5"/>
<circle cx="14.8743" cy="117.693" r="6.00476" fill="white" fill-opacity="0.5"/>
<circle cx="14.8743" cy="154.923" r="6.00476" fill="white" fill-opacity="0.5"/>
<circle cx="14.8743" cy="192.152" r="6.00476" fill="white" fill-opacity="0.5"/>
<circle cx="48.5009" cy="6.00476" r="6.00476" fill="white" fill-opacity="0.5"/>
<circle cx="48.5009" cy="43.2343" r="6.00476" fill="white" fill-opacity="0.5"/>
<circle cx="48.5009" cy="80.4637" r="6.00476" fill="white" fill-opacity="0.5"/>
<circle cx="48.5009" cy="117.693" r="6.00476" fill="white" fill-opacity="0.5"/>
<circle cx="48.5009" cy="154.923" r="6.00476" fill="white" fill-opacity="0.5"/>
<circle cx="48.5009" cy="192.152" r="6.00476" fill="white" fill-opacity="0.5"/>
<circle cx="82.1276" cy="6.00476" r="6.00476" fill="white" fill-opacity="0.5"/>
<circle cx="82.1276" cy="43.2343" r="6.00476" fill="white" fill-opacity="0.5"/>
<circle cx="82.1276" cy="80.4637" r="6.00476" fill="white" fill-opacity="0.5"/>
<circle cx="82.1276" cy="117.693" r="6.00476" fill="white" fill-opacity="0.5"/>
<circle cx="82.1276" cy="154.923" r="6.00476" fill="white" fill-opacity="0.5"/>
<circle cx="82.1276" cy="192.152" r="6.00476" fill="white" fill-opacity="0.5"/>
<circle cx="115.754" cy="6.00476" r="6.00476" fill="white" fill-opacity="0.5"/>
<circle cx="115.754" cy="43.2343" r="6.00476" fill="white" fill-opacity="0.5"/>
<circle cx="115.754" cy="80.4637" r="6.00476" fill="white" fill-opacity="0.5"/>
<circle cx="115.754" cy="117.693" r="6.00476" fill="white" fill-opacity="0.5"/>
<circle cx="115.754" cy="154.923" r="6.00476" fill="white" fill-opacity="0.5"/>
<circle cx="115.754" cy="192.152" r="6.00476" fill="white" fill-opacity="0.5"/>
<circle cx="149.381" cy="6.00476" r="6.00476" fill="white" fill-opacity="0.5"/>
<circle cx="149.381" cy="43.2343" r="6.00476" fill="white" fill-opacity="0.5"/>
<circle cx="149.381" cy="80.4637" r="6.00476" fill="white" fill-opacity="0.5"/>
<circle cx="149.381" cy="117.693" r="6.00476" fill="white" fill-opacity="0.5"/>
<circle cx="149.381" cy="154.923" r="6.00476" fill="white" fill-opacity="0.5"/>
<circle cx="149.381" cy="192.152" r="6.00476" fill="white" fill-opacity="0.5"/>
<circle cx="183.008" cy="6.00476" r="6.00476" fill="white" fill-opacity="0.5"/>
<circle cx="183.008" cy="43.2343" r="6.00476" fill="white" fill-opacity="0.5"/>
<circle cx="183.008" cy="80.4637" r="6.00476" fill="white" fill-opacity="0.5"/>
<circle cx="183.008" cy="117.693" r="6.00476" fill="white" fill-opacity="0.5"/>
<circle cx="183.008" cy="154.923" r="6.00476" fill="white" fill-opacity="0.5"/>
<circle cx="183.008" cy="192.152" r="6.00476" fill="white" fill-opacity="0.5"/>
<circle cx="216.634" cy="6.00476" r="6.00476" fill="white" fill-opacity="0.5"/>
<circle cx="216.634" cy="43.2343" r="6.00476" fill="white" fill-opacity="0.5"/>
<circle cx="216.634" cy="80.4637" r="6.00476" fill="white" fill-opacity="0.5"/>
<circle cx="216.634" cy="117.693" r="6.00476" fill="white" fill-opacity="0.5"/>
<circle cx="216.634" cy="154.923" r="6.00476" fill="white" fill-opacity="0.5"/>
<circle cx="216.634" cy="192.152" r="6.00476" fill="white" fill-opacity="0.5"/>
</g>
</svg>
