<svg width="157" height="160" viewBox="0 0 157 160" fill="none" xmlns="http://www.w3.org/2000/svg">
<path d="M77.5 155C62.172 155 47.1881 150.455 34.4433 141.939C21.6985 133.423 11.7652 121.319 5.89937 107.158C0.0335794 92.9967 -1.50118 77.4141 1.48918 62.3805C4.47953 47.347 11.8607 33.5378 22.6993 22.6993C33.5378 11.8607 47.347 4.47953 62.3805 1.48918C77.4141 -1.50118 92.9967 0.0335794 107.158 5.89937C121.319 11.7652 133.423 21.6985 141.939 34.4433C150.455 47.1881 155 62.172 155 77.5C154.977 98.0471 146.804 117.746 132.275 132.275C117.746 146.804 98.0471 154.977 77.5 155ZM77.5 6.51003C63.4595 6.51003 49.7343 10.6735 38.0601 18.474C26.3859 26.2745 17.2869 37.3616 11.9138 50.3333C6.54076 63.3051 5.13492 77.5788 7.87409 91.3495C10.6133 105.12 17.3744 117.769 27.3025 127.698C37.2306 137.626 49.8799 144.387 63.6506 147.126C77.4213 149.865 91.695 148.459 104.667 143.086C117.638 137.713 128.726 128.614 136.526 116.94C144.327 105.266 148.49 91.5405 148.49 77.5C148.467 58.6795 140.98 40.6365 127.672 27.3284C114.364 14.0203 96.3205 6.53347 77.5 6.51003Z" fill="#F5DE19"/>
<path d="M4 74H151V81H4V74Z" fill="#F5DE19"/>
<path d="M79.432 46.9955C56.999 47.0963 34.6545 44.1717 13 38.3003L14.8985 32C15.5184 32.1902 77.8685 50.5765 140.129 32L142 38.3059C121.67 44.205 100.597 47.1317 79.432 46.9955Z" fill="#F5DE19"/>
<path d="M14.8708 121L13 115.115C77.2208 97.2283 139.398 114.383 142 115.115L140.101 121C139.487 120.822 77.1426 103.652 14.8708 121Z" fill="#F5DE19"/>
<path d="M52.146 148C33.4432 102.53 32.0106 51.5028 48.1315 5L53.9855 7.5641C38.5168 52.4166 39.949 101.598 58 145.419L52.146 148Z" fill="#F5DE19"/>
<path d="M102.13 148L96 145.419C114.916 101.597 116.413 52.4153 100.197 7.5641L106.333 5C123.228 51.5027 121.728 102.529 102.13 148Z" fill="#F5DE19"/>
<path d="M74 4H81V154H74V4Z" fill="#F5DE19"/>
<path d="M116.153 135.755C117.679 138.85 120.046 141.451 122.983 143.259C125.92 145.068 129.307 146.011 132.756 145.98C139.727 145.98 144.185 142.491 144.185 137.672C144.185 131.897 139.61 129.845 131.934 126.491L127.728 124.685C115.583 119.508 107.516 113.023 107.516 99.3097C107.516 86.6806 117.131 77.0648 132.163 77.0648C137.035 76.7124 141.902 77.8033 146.158 80.2013C150.414 82.5993 153.87 86.1983 156.095 90.5493L142.99 98.9687C142.13 96.8072 140.633 94.9589 138.698 93.6696C136.763 92.3804 134.482 91.7112 132.158 91.7512C131.146 91.6495 130.124 91.7598 129.156 92.0752C128.189 92.3906 127.298 92.9042 126.541 93.5832C125.783 94.2622 125.175 95.0917 124.755 96.019C124.335 96.9462 124.113 97.9508 124.102 98.9687C124.102 104 127.231 106.069 134.448 109.194L138.655 111C152.95 117.149 161 123.388 161 137.454C161 152.616 149.101 160.935 133.113 160.935C126.887 161.331 120.679 159.916 115.238 156.861C109.797 153.806 105.356 149.24 102.45 143.716L116.153 135.755ZM56.7089 137.214C59.3512 141.91 61.7365 145.874 67.5407 145.874C73.0712 145.874 76.5571 143.71 76.5571 135.291V78.0152H93.3831V135.509C93.3831 152.946 83.1657 160.884 68.2446 160.884C62.9764 161.171 57.7449 159.855 53.2388 157.109C48.7326 154.362 45.1631 150.315 43 145.499L56.7089 137.214Z" fill="#F5DE19" stroke="black" stroke-width="0.25" stroke-miterlimit="10"/>
</svg>
