<svg width="1540" height="1100" viewBox="0 0 1448 1032" fill="none" xmlns="http://www.w3.org/2000/svg">
<g clip-path="url(#clip0)" filter="url(#filter0_d)">
<rect width="1440" height="1024" transform="translate(4)" fill="#5352ED" fill-opacity="0.74"/>
<mask id="mask0" mask-type="alpha" maskUnits="userSpaceOnUse" x="-53" y="810" width="274" height="274">
<circle cx="84" cy="947" r="137" fill="white" fill-opacity="0.5"/>
</mask>
<g mask="url(#mask0)">
<circle cx="18.8743" cy="816.005" r="6.00476" fill="white" fill-opacity="0.5"/>
<circle cx="18.8743" cy="853.234" r="6.00476" fill="white" fill-opacity="0.5"/>
<circle cx="18.8743" cy="890.464" r="6.00476" fill="white" fill-opacity="0.5"/>
<circle cx="18.8743" cy="927.693" r="6.00476" fill="white" fill-opacity="0.5"/>
<circle cx="18.8743" cy="964.923" r="6.00476" fill="white" fill-opacity="0.5"/>
<circle cx="18.8743" cy="1002.15" r="6.00476" fill="white" fill-opacity="0.5"/>
<circle cx="52.5009" cy="816.005" r="6.00476" fill="white" fill-opacity="0.5"/>
<circle cx="52.5009" cy="853.234" r="6.00476" fill="white" fill-opacity="0.5"/>
<circle cx="52.5009" cy="890.464" r="6.00476" fill="white" fill-opacity="0.5"/>
<circle cx="52.5009" cy="927.693" r="6.00476" fill="white" fill-opacity="0.5"/>
<circle cx="52.5009" cy="964.923" r="6.00476" fill="white" fill-opacity="0.5"/>
<circle cx="52.5009" cy="1002.15" r="6.00476" fill="white" fill-opacity="0.5"/>
<circle cx="86.1276" cy="816.005" r="6.00476" fill="white" fill-opacity="0.5"/>
<circle cx="86.1276" cy="853.234" r="6.00476" fill="white" fill-opacity="0.5"/>
<circle cx="86.1276" cy="890.464" r="6.00476" fill="white" fill-opacity="0.5"/>
<circle cx="86.1276" cy="927.693" r="6.00476" fill="white" fill-opacity="0.5"/>
<circle cx="86.1276" cy="964.923" r="6.00476" fill="white" fill-opacity="0.5"/>
<circle cx="86.1276" cy="1002.15" r="6.00476" fill="white" fill-opacity="0.5"/>
<circle cx="119.754" cy="816.005" r="6.00476" fill="white" fill-opacity="0.5"/>
<circle cx="119.754" cy="853.234" r="6.00476" fill="white" fill-opacity="0.5"/>
<circle cx="119.754" cy="890.464" r="6.00476" fill="white" fill-opacity="0.5"/>
<circle cx="119.754" cy="927.693" r="6.00476" fill="white" fill-opacity="0.5"/>
<circle cx="119.754" cy="964.923" r="6.00476" fill="white" fill-opacity="0.5"/>
<circle cx="119.754" cy="1002.15" r="6.00476" fill="white" fill-opacity="0.5"/>
<circle cx="153.381" cy="816.005" r="6.00476" fill="white" fill-opacity="0.5"/>
<circle cx="153.381" cy="853.234" r="6.00476" fill="white" fill-opacity="0.5"/>
<circle cx="153.381" cy="890.464" r="6.00476" fill="white" fill-opacity="0.5"/>
<circle cx="153.381" cy="927.693" r="6.00476" fill="white" fill-opacity="0.5"/>
<circle cx="153.381" cy="964.923" r="6.00476" fill="white" fill-opacity="0.5"/>
<circle cx="153.381" cy="1002.15" r="6.00476" fill="white" fill-opacity="0.5"/>
<circle cx="187.008" cy="816.005" r="6.00476" fill="white" fill-opacity="0.5"/>
<circle cx="187.008" cy="853.234" r="6.00476" fill="white" fill-opacity="0.5"/>
<circle cx="187.008" cy="890.464" r="6.00476" fill="white" fill-opacity="0.5"/>
<circle cx="187.008" cy="927.693" r="6.00476" fill="white" fill-opacity="0.5"/>
<circle cx="187.008" cy="964.923" r="6.00476" fill="white" fill-opacity="0.5"/>
<circle cx="187.008" cy="1002.15" r="6.00476" fill="white" fill-opacity="0.5"/>
<circle cx="220.634" cy="816.005" r="6.00476" fill="white" fill-opacity="0.5"/>
<circle cx="220.634" cy="853.234" r="6.00476" fill="white" fill-opacity="0.5"/>
<circle cx="220.634" cy="890.464" r="6.00476" fill="white" fill-opacity="0.5"/>
<circle cx="220.634" cy="927.693" r="6.00476" fill="white" fill-opacity="0.5"/>
<circle cx="220.634" cy="964.923" r="6.00476" fill="white" fill-opacity="0.5"/>
<circle cx="220.634" cy="1002.15" r="6.00476" fill="white" fill-opacity="0.5"/>
</g>
<circle cx="751" cy="580" r="10" fill="#2ED573"/>
<circle cx="369.5" cy="904.5" r="5.5" fill="#FF6348"/>
<circle cx="490.5" cy="973.5" r="4.5" fill="#1E90FF"/>
<circle cx="827.5" cy="214.5" r="7.5" fill="#5352ED"/>
<circle cx="1235.5" cy="896.5" r="5.5" fill="#FF6348"/>
<circle cx="1356.5" cy="965.5" r="4.5" fill="#1E90FF"/>
<circle cx="274" cy="217" r="10" fill="#2ED573"/>
<circle cx="13.5" cy="610.5" r="4.5" fill="#1E90FF"/>
<circle cx="532.5" cy="303.5" r="5.5" fill="#FF6348"/>
<circle cx="469" cy="462" r="4" fill="#5352ED"/>
<circle cx="653.5" cy="372.5" r="4.5" fill="#1E90FF"/>
<mask id="mask1" mask-type="alpha" maskUnits="userSpaceOnUse" x="-53" y="810" width="274" height="274">
<circle cx="84" cy="947" r="137" fill="white" fill-opacity="0.5"/>
</mask>
<g mask="url(#mask1)">
<circle cx="18.8743" cy="816.005" r="6.00476" fill="white" fill-opacity="0.5"/>
<circle cx="18.8743" cy="853.234" r="6.00476" fill="white" fill-opacity="0.5"/>
<circle cx="18.8743" cy="890.464" r="6.00476" fill="white" fill-opacity="0.5"/>
<circle cx="18.8743" cy="927.693" r="6.00476" fill="white" fill-opacity="0.5"/>
<circle cx="18.8743" cy="964.923" r="6.00476" fill="white" fill-opacity="0.5"/>
<circle cx="18.8743" cy="1002.15" r="6.00476" fill="white" fill-opacity="0.5"/>
<circle cx="52.5009" cy="816.005" r="6.00476" fill="white" fill-opacity="0.5"/>
<circle cx="52.5009" cy="853.234" r="6.00476" fill="white" fill-opacity="0.5"/>
<circle cx="52.5009" cy="890.464" r="6.00476" fill="white" fill-opacity="0.5"/>
<circle cx="52.5009" cy="927.693" r="6.00476" fill="white" fill-opacity="0.5"/>
<circle cx="52.5009" cy="964.923" r="6.00476" fill="white" fill-opacity="0.5"/>
<circle cx="52.5009" cy="1002.15" r="6.00476" fill="white" fill-opacity="0.5"/>
<circle cx="86.1276" cy="816.005" r="6.00476" fill="white" fill-opacity="0.5"/>
<circle cx="86.1276" cy="853.234" r="6.00476" fill="white" fill-opacity="0.5"/>
<circle cx="86.1276" cy="890.464" r="6.00476" fill="white" fill-opacity="0.5"/>
<circle cx="86.1276" cy="927.693" r="6.00476" fill="white" fill-opacity="0.5"/>
<circle cx="86.1276" cy="964.923" r="6.00476" fill="white" fill-opacity="0.5"/>
<circle cx="86.1276" cy="1002.15" r="6.00476" fill="white" fill-opacity="0.5"/>
<circle cx="119.754" cy="816.005" r="6.00476" fill="white" fill-opacity="0.5"/>
<circle cx="119.754" cy="853.234" r="6.00476" fill="white" fill-opacity="0.5"/>
<circle cx="119.754" cy="890.464" r="6.00476" fill="white" fill-opacity="0.5"/>
<circle cx="119.754" cy="927.693" r="6.00476" fill="white" fill-opacity="0.5"/>
<circle cx="119.754" cy="964.923" r="6.00476" fill="white" fill-opacity="0.5"/>
<circle cx="119.754" cy="1002.15" r="6.00476" fill="white" fill-opacity="0.5"/>
<circle cx="153.381" cy="816.005" r="6.00476" fill="white" fill-opacity="0.5"/>
<circle cx="153.381" cy="853.234" r="6.00476" fill="white" fill-opacity="0.5"/>
<circle cx="153.381" cy="890.464" r="6.00476" fill="white" fill-opacity="0.5"/>
<circle cx="153.381" cy="927.693" r="6.00476" fill="white" fill-opacity="0.5"/>
<circle cx="153.381" cy="964.923" r="6.00476" fill="white" fill-opacity="0.5"/>
<circle cx="153.381" cy="1002.15" r="6.00476" fill="white" fill-opacity="0.5"/>
<circle cx="187.008" cy="816.005" r="6.00476" fill="white" fill-opacity="0.5"/>
<circle cx="187.008" cy="853.234" r="6.00476" fill="white" fill-opacity="0.5"/>
<circle cx="187.008" cy="890.464" r="6.00476" fill="white" fill-opacity="0.5"/>
<circle cx="187.008" cy="927.693" r="6.00476" fill="white" fill-opacity="0.5"/>
<circle cx="187.008" cy="964.923" r="6.00476" fill="white" fill-opacity="0.5"/>
<circle cx="187.008" cy="1002.15" r="6.00476" fill="white" fill-opacity="0.5"/>
<circle cx="220.634" cy="816.005" r="6.00476" fill="white" fill-opacity="0.5"/>
<circle cx="220.634" cy="853.234" r="6.00476" fill="white" fill-opacity="0.5"/>
<circle cx="220.634" cy="890.464" r="6.00476" fill="white" fill-opacity="0.5"/>
<circle cx="220.634" cy="927.693" r="6.00476" fill="white" fill-opacity="0.5"/>
<circle cx="220.634" cy="964.923" r="6.00476" fill="white" fill-opacity="0.5"/>
<circle cx="220.634" cy="1002.15" r="6.00476" fill="white" fill-opacity="0.5"/>
</g>
<circle cx="751" cy="580" r="10" fill="#2ED573"/>
<circle cx="369.5" cy="904.5" r="5.5" fill="#FF6348"/>
<circle cx="490.5" cy="973.5" r="4.5" fill="#1E90FF"/>
<circle cx="827.5" cy="214.5" r="7.5" fill="#5352ED"/>
<circle cx="1235.5" cy="896.5" r="5.5" fill="#FF6348"/>
<circle cx="1356.5" cy="965.5" r="4.5" fill="#1E90FF"/>
<circle cx="274" cy="217" r="10" fill="#2ED573"/>
<circle cx="13.5" cy="610.5" r="4.5" fill="#1E90FF"/>
<circle cx="532.5" cy="303.5" r="5.5" fill="#FF6348"/>
<circle cx="469" cy="462" r="4" fill="#5352ED"/>
<circle cx="653.5" cy="372.5" r="4.5" fill="#1E90FF"/>
</g>
<defs>
<filter id="filter0_d" x="0" y="0" width="1448" height="1032" filterUnits="userSpaceOnUse" color-interpolation-filters="sRGB">
<feFlood flood-opacity="0" result="BackgroundImageFix"/>
<feColorMatrix in="SourceAlpha" type="matrix" values="0 0 0 0 0 0 0 0 0 0 0 0 0 0 0 0 0 0 127 0"/>
<feOffset dy="4"/>
<feGaussianBlur stdDeviation="2"/>
<feColorMatrix type="matrix" values="0 0 0 0 0 0 0 0 0 0 0 0 0 0 0 0 0 0 0.25 0"/>
<feBlend mode="normal" in2="BackgroundImageFix" result="effect1_dropShadow"/>
<feBlend mode="normal" in="SourceGraphic" in2="effect1_dropShadow" result="shape"/>
</filter>
<clipPath id="clip0">
<rect width="1440" height="1024" fill="white" transform="translate(4)"/>
</clipPath>
</defs>
</svg>
