<svg width="138" height="139" viewBox="0 0 138 139" fill="none" xmlns="http://www.w3.org/2000/svg">
<path d="M75.6411 0C36.9575 0 39.3728 16.7382 39.3728 16.7382L39.4158 34.0795H76.3308V39.2858H24.7537C24.7537 39.2858 0 36.4847 0 75.4293C0 114.375 21.6056 112.994 21.6056 112.994H34.4997V94.9216C34.4997 94.9216 33.8046 73.3641 55.7605 73.3641H92.3736C92.3736 73.3641 112.944 73.6957 112.944 53.5277V20.1811C112.944 20.1811 116.068 0 75.6411 0ZM55.2861 11.6617C56.1584 11.6609 57.0224 11.8317 57.8284 12.1645C58.6345 12.4972 59.3669 12.9852 59.9838 13.6007C60.6006 14.2161 61.0897 14.9469 61.4232 15.7512C61.7567 16.5555 61.9279 17.4175 61.9271 18.2879C61.9279 19.1583 61.7567 20.0203 61.4232 20.8245C61.0897 21.6288 60.6006 22.3596 59.9838 22.9751C59.3669 23.5905 58.6345 24.0786 57.8284 24.4113C57.0224 24.744 56.1584 24.9149 55.2861 24.9141C54.4138 24.9149 53.5499 24.744 52.7438 24.4113C51.9377 24.0786 51.2053 23.5905 50.5885 22.9751C49.9716 22.3596 49.4825 21.6288 49.149 20.8245C48.8156 20.0203 48.6443 19.1583 48.6451 18.2879C48.6443 17.4175 48.8156 16.5555 49.149 15.7512C49.4825 14.9469 49.9716 14.2161 50.5885 13.6007C51.2053 12.9852 51.9377 12.4972 52.7438 12.1645C53.5499 11.8317 54.4138 11.6609 55.2861 11.6617Z" fill="url(#paint0_linear)"/>
<path d="M76.3595 152C115.043 152 112.628 135.262 112.628 135.262L112.585 117.921H75.6691V112.715H127.246C127.246 112.715 152 115.516 152 76.5701C152 37.6249 130.394 39.0061 130.394 39.0061H117.5V57.0778C117.5 57.0778 118.195 78.6353 96.2395 78.6353H59.6263C59.6263 78.6353 39.056 78.3037 39.056 98.4723V131.82C39.056 131.82 35.9324 152 76.3589 152H76.3595ZM96.7145 140.34C95.8421 140.34 94.9782 140.169 94.1721 139.837C93.3661 139.504 92.6337 139.016 92.0168 138.4C91.4 137.785 90.9109 137.054 90.5774 136.25C90.2439 135.446 90.0727 134.584 90.0735 133.713C90.0726 132.843 90.2438 131.981 90.5772 131.176C90.9106 130.372 91.3998 129.641 92.0166 129.026C92.6335 128.41 93.3659 127.922 94.172 127.589C94.9781 127.257 95.8421 127.086 96.7145 127.086C97.5868 127.086 98.4507 127.257 99.2568 127.589C100.063 127.922 100.795 128.41 101.412 129.026C102.029 129.641 102.518 130.372 102.852 131.176C103.185 131.98 103.356 132.842 103.355 133.713C103.356 134.583 103.185 135.445 102.852 136.249C102.518 137.054 102.029 137.784 101.412 138.4C100.795 139.015 100.063 139.503 99.2568 139.836C98.4507 140.169 97.5868 140.34 96.7145 140.339V140.34Z" fill="url(#paint1_linear)"/>
<defs>
<linearGradient id="paint0_linear" x1="14.6437" y1="13.6041" x2="89.9921" y2="88.3671" gradientUnits="userSpaceOnUse">
<stop stop-color="#387EB8"/>
<stop offset="1" stop-color="#366994"/>
</linearGradient>
<linearGradient id="paint1_linear" x1="60.6146" y1="62.2543" x2="141.538" y2="138.925" gradientUnits="userSpaceOnUse">
<stop stop-color="#FFE052"/>
<stop offset="1" stop-color="#FFC331"/>
</linearGradient>
</defs>
</svg>
