<svg width="167" height="169" viewBox="0 0 167 169" fill="none" xmlns="http://www.w3.org/2000/svg">
<path fill-rule="evenodd" clip-rule="evenodd" d="M83.5236 192.539C80.3935 193.57 77.046 193.753 73.8223 193.068C62.4489 190.43 54.2023 175.354 51.7589 152.734C51.5631 150.287 51.4117 147.839 51.3048 145.391C49.4015 145.45 47.4966 145.482 45.5904 145.486C35.7419 145.371 25.9999 143.433 16.8566 139.772C13.4393 138.61 10.3138 136.723 7.69438 134.24C5.07499 131.757 3.0238 128.736 1.68153 125.386C-1.71552 114.217 7.22576 99.5386 25.6018 86.1248C27.7402 84.6523 29.905 83.222 32.0952 81.8345C30.9088 79.8923 29.7545 77.9291 28.6329 75.9456C23.9829 67.6636 20.8382 58.6227 19.345 49.2427C18.6171 45.816 18.6499 42.2713 19.4409 38.8586C20.232 35.4459 21.7621 32.2483 23.9234 29.4913C32.2015 20.6178 51.0679 21.4126 73.1648 31.5671C74.5223 32.2425 75.8716 32.9329 77.2126 33.6379C78.2972 31.6507 79.4156 29.6805 80.5676 27.7284C85.4179 19.5704 91.6752 12.3363 99.0495 6.3616C101.659 4.00996 104.753 2.26109 108.114 1.23896C111.475 0.21684 115.019 -0.0535084 118.496 0.447079C130.32 3.18448 139.052 19.9284 141.288 44.1477C141.38 45.6577 141.456 47.1682 141.514 48.6787C143.769 48.6261 146.026 48.6113 148.285 48.6341C157.774 48.7609 167.166 50.568 176.025 53.9716C179.366 55.0538 182.428 56.8574 184.994 59.2547C187.56 61.6519 189.568 64.5842 190.874 67.8437C194.405 79.4521 184.266 95.3876 164.395 109.419C163.288 110.151 162.174 110.872 161.054 111.582C162.026 113.15 162.977 114.733 163.906 116.329C168.739 124.911 171.941 134.314 173.352 144.061C174.058 147.6 173.991 151.249 173.155 154.759C172.319 158.268 170.733 161.556 168.508 164.396C166.25 166.726 163.413 168.415 160.288 169.287C151.133 172.072 137.819 170.068 122.544 163.338C120.328 162.287 118.134 161.197 115.961 160.068C115.056 161.756 114.126 163.433 113.172 165.096C108.151 173.568 101.605 181.038 93.8658 187.127C90.7478 189.501 87.2512 191.33 83.5236 192.539ZM108.537 156.012C107.716 157.545 106.874 159.067 106.01 160.579C94.3111 179.344 82.0915 186.301 75.7344 184.817C69.6016 183.39 62.4111 172.636 60.1571 151.804C59.9821 149.52 59.8469 147.236 59.7516 144.951C68.67 144.297 77.5316 143.048 86.2772 141.213C93.3621 146.628 100.798 151.572 108.537 156.012ZM119.805 152.516C121.832 153.574 123.879 154.598 125.944 155.587C145.117 164.039 158.026 163.184 162.282 158.56C166.732 153.774 166.818 139.737 156.398 120.236C155.557 118.798 154.697 117.372 153.82 115.958C146.07 120.428 138.036 124.381 129.773 127.791C127.003 136.241 123.674 144.501 119.805 152.516ZM156.459 104.503C157.488 103.852 158.511 103.191 159.529 102.52C178.212 89.3156 184.669 76.5667 182.766 70.3098C181.772 68.2663 180.365 66.4512 178.634 64.9791C176.903 63.5069 174.886 62.4097 172.709 61.7569C164.796 58.7538 156.415 57.1696 147.951 57.0771C145.855 57.0583 143.76 57.0735 141.667 57.1226C141.644 65.894 141.054 74.6512 139.901 83.3395C145.885 90.0134 151.417 97.0836 156.459 104.503ZM138.151 94.245C142.065 98.9409 145.755 103.823 149.206 108.875C143.907 111.915 138.47 114.702 132.915 117.229C133.917 113.488 134.811 109.716 135.596 105.916C136.563 102.048 137.415 98.156 138.151 94.245ZM132.325 75.3436C132.9 69.417 133.203 63.4643 133.233 57.5042C127.221 57.9075 121.234 58.5906 115.291 59.5505C118.209 62.0641 121.058 64.6623 123.834 67.3424C126.744 69.929 129.575 72.5974 132.325 75.3436ZM104.544 61.5988C109.217 65.353 113.721 69.3253 118.039 73.5048C122.552 77.5078 126.869 81.7158 130.976 86.1134C130.055 92.107 128.854 98.0617 127.375 103.958C126.162 109.861 124.673 115.696 122.916 121.444C117.245 123.651 111.467 125.594 105.6 127.264C99.9319 129.143 94.1869 130.754 88.384 132.094C83.6103 128.301 79.0088 124.284 74.5955 120.055L74.6063 120.066C70.1298 116.011 65.8511 111.755 61.7824 107.313C62.68 101.356 63.851 95.4346 65.2938 89.5691L65.3535 89.5953C66.6304 83.6894 68.1809 77.8543 69.9978 72.1082C75.587 69.9196 81.2804 67.9842 87.0609 66.3102C92.8195 64.466 98.6536 62.8945 104.544 61.5988ZM95.8333 54.9952C92.0631 55.9639 88.3181 57.0421 84.6031 58.229C80.9004 59.2948 77.2324 60.4647 73.6031 61.7368C75.7314 56.1312 78.1194 50.625 80.7601 45.2361C85.9342 48.2573 90.9638 51.514 95.8333 54.9952ZM106.669 52.5259C115.388 50.7889 124.215 49.6276 133.093 49.0504C133.039 47.6598 132.971 46.2693 132.888 44.8791C130.782 22.0819 122.969 10.1077 116.601 8.63415C114.333 8.47367 112.057 8.78542 109.916 9.54971C107.775 10.314 105.816 11.5142 104.162 13.0744C97.6131 18.4423 92.0625 24.9235 87.7654 32.2199C86.6919 34.0443 85.649 35.885 84.637 37.7414C92.2977 42.1865 99.657 47.1256 106.669 52.5259ZM54.6058 99.0184C55.3195 95.2213 56.142 91.4418 57.073 87.6846C57.8957 83.8957 58.8262 80.1349 59.8628 76.4065C54.4234 78.8946 49.0978 81.6296 43.9029 84.6036C47.2475 89.5732 50.8192 94.3832 54.6058 99.0184ZM36.6557 88.9611C41.5889 96.3268 46.9991 103.358 52.8502 110.011C51.6751 118.933 51.094 127.926 51.1118 136.93C49.3668 136.985 47.6203 137.015 45.8728 137.022C23.7771 136.264 11.6637 129.178 9.7566 122.908C7.93374 116.914 13.6681 105.308 30.5795 92.9524C32.5815 91.5839 34.6073 90.2533 36.6557 88.9611ZM39.3216 77.4642C47.0025 73.0346 54.9633 69.1138 63.1523 65.7264C66.001 57.3102 69.4014 49.0879 73.3324 41.1135C72.1051 40.4669 70.8705 39.8331 69.6288 39.2124C48.8276 29.6531 34.555 30.4433 30.0963 35.2246C28.8264 37.1086 27.9608 39.2353 27.5543 41.4706C27.1479 43.706 27.2093 46.0013 27.7347 48.2117C29.102 56.5662 31.9321 64.6141 36.0949 71.9856C37.1411 73.8304 38.2168 75.6568 39.3216 77.4642ZM60.4516 118.188C63.1671 120.952 65.964 123.641 68.8392 126.249C71.705 129.005 74.6482 131.673 77.6647 134.251C71.6779 135.279 65.6429 136.023 59.5799 136.48C59.5873 130.37 59.8784 124.266 60.4516 118.188ZM97.091 138.629C100.774 137.64 104.431 136.545 108.058 135.345C111.895 134.249 115.695 133.041 119.454 131.724C117.362 137.4 115.003 142.976 112.383 148.435C107.136 145.401 102.033 142.129 97.091 138.629ZM113.17 91.4779C116.008 100.807 110.745 110.67 101.416 113.508C92.0866 116.345 82.2234 111.083 79.386 101.753C76.5485 92.424 81.8112 82.5608 91.1405 79.7234C100.47 76.8859 110.333 82.1486 113.17 91.4779Z" fill="#00D8FF"/>
</svg>
