<svg width="18" height="16" viewBox="0 0 18 16" fill="none" xmlns="http://www.w3.org/2000/svg">
<path d="M17.7651 5.54501L13.265 9.79454C12.7906 10.2425 12 9.91039 12 9.24929V7.00045C7.48203 7.03076 5.57606 8.09773 6.85078 12.3552C6.99088 12.8231 6.44934 13.1854 6.06934 12.8968C4.85162 11.9718 3.75 10.2025 3.75 8.41661C3.75 3.91857 7.42497 3.02598 12 3.00061V0.750138C12 0.0884504 12.7912 -0.242612 13.265 0.204888L17.7651 4.45451C18.0782 4.75023 18.0784 5.24904 17.7651 5.54501ZM12 11.8475V13.9998H2V3.99976H3.59113C3.64162 3.99973 3.69159 3.98949 3.73804 3.96966C3.78448 3.94983 3.82643 3.92081 3.86138 3.88436C4.32866 3.39786 4.86878 3.01279 5.45556 2.70698C5.80338 2.5257 5.6745 1.99976 5.28228 1.99976H1.5C0.671562 1.99976 0 2.67133 0 3.49976V14.4998C0 15.3282 0.671562 15.9998 1.5 15.9998H12.5C13.3284 15.9998 14 15.3282 14 14.4998V11.7246C14 11.4656 13.7438 11.285 13.4997 11.3714C13.1573 11.4925 12.7907 11.5287 12.4312 11.4769C12.2041 11.4442 12 11.618 12 11.8475Z" fill="black"/>
</svg>
