<svg width="129" height="124" viewBox="0 0 129 124" fill="none" xmlns="http://www.w3.org/2000/svg">
<path d="M99.084 82.8C99.636 78.246 100.05 73.692 100.05 69C100.05 64.308 99.636 59.754 99.084 55.2H122.406C123.51 59.616 124.2 64.239 124.2 69C124.2 73.761 123.51 78.384 122.406 82.8H99.084ZM86.871 121.164C91.011 113.505 94.185 105.225 96.393 96.6H116.748C110.063 108.111 99.4574 116.831 86.871 121.164V121.164ZM85.146 82.8H52.854C52.164 78.246 51.75 73.692 51.75 69C51.75 64.308 52.164 59.685 52.854 55.2H85.146C85.767 59.685 86.25 64.308 86.25 69C86.25 73.692 85.767 78.246 85.146 82.8ZM69 123.924C63.273 115.644 58.65 106.467 55.821 96.6H82.179C79.35 106.467 74.727 115.644 69 123.924ZM41.4 41.4H21.252C27.8681 29.8578 38.4661 21.1243 51.06 16.836C46.92 24.495 43.815 32.775 41.4 41.4ZM21.252 96.6H41.4C43.815 105.225 46.92 113.505 51.06 121.164C38.4925 116.828 27.9094 108.107 21.252 96.6V96.6ZM15.594 82.8C14.49 78.384 13.8 73.761 13.8 69C13.8 64.239 14.49 59.616 15.594 55.2H38.916C38.364 59.754 37.95 64.308 37.95 69C37.95 73.692 38.364 78.246 38.916 82.8H15.594ZM69 14.007C74.727 22.287 79.35 31.533 82.179 41.4H55.821C58.65 31.533 63.273 22.287 69 14.007V14.007ZM116.748 41.4H96.393C94.2335 32.8541 91.0357 24.6047 86.871 16.836C99.567 21.183 110.124 29.946 116.748 41.4ZM69 0C30.843 0 0 31.05 0 69C0 87.2999 7.26962 104.85 20.2096 117.79C26.6169 124.198 34.2234 129.28 42.5948 132.748C50.9663 136.215 59.9388 138 69 138C87.2999 138 104.85 130.73 117.79 117.79C130.73 104.85 138 87.2999 138 69C138 59.9388 136.215 50.9663 132.748 42.5948C129.28 34.2234 124.198 26.6169 117.79 20.2096C111.383 13.8024 103.777 8.71989 95.4052 5.25231C87.0337 1.78474 78.0612 0 69 0V0Z" fill="#5114FF"/>
</svg>
